<svg xmlns="http://www.w3.org/2000/svg" viewBox="0 0 512 512">
  <defs>
    <linearGradient id="bg" x1="0%" y1="0%" x2="100%" y2="100%">
      <stop offset="0%" style="stop-color:#3B82F6"/>
      <stop offset="100%" style="stop-color:#1D4ED8"/>
    </linearGradient>
  </defs>
  <!-- 背景 -->
  <rect width="512" height="512" rx="96" fill="url(#bg)"/>
  <!-- 建筑图标 -->
  <g fill="white">
    <!-- 主楼 -->
    <rect x="160" y="200" width="192" height="232" rx="8"/>
    <!-- 窗户网格 -->
    <rect x="184" y="224" width="32" height="32" rx="4" fill="#3B82F6"/>
    <rect x="240" y="224" width="32" height="32" rx="4" fill="#3B82F6"/>
    <rect x="296" y="224" width="32" height="32" rx="4" fill="#3B82F6"/>
    <rect x="184" y="280" width="32" height="32" rx="4" fill="#3B82F6"/>
    <rect x="240" y="280" width="32" height="32" rx="4" fill="#3B82F6"/>
    <rect x="296" y="280" width="32" height="32" rx="4" fill="#3B82F6"/>
    <rect x="184" y="336" width="32" height="32" rx="4" fill="#3B82F6"/>
    <rect x="240" y="336" width="32" height="32" rx="4" fill="#3B82F6"/>
    <rect x="296" y="336" width="32" height="32" rx="4" fill="#3B82F6"/>
    <!-- 门 -->
    <rect x="232" y="376" width="48" height="56" rx="4" fill="#3B82F6"/>
    <!-- 屋顶 -->
    <path d="M128 200 L256 100 L384 200 Z" fill="white"/>
    <!-- 进度条 -->
    <rect x="128" y="80" width="256" height="12" rx="6" fill="rgba(255,255,255,0.3)"/>
    <rect x="128" y="80" width="180" height="12" rx="6" fill="#10B981"/>
  </g>
</svg>
